<svg width="478" height="355" viewBox="0 0 478 355" fill="none" xmlns="http://www.w3.org/2000/svg">
<g clip-path="url(#clip0_0_122)">
<path d="M478 311.974H0V312.213H478V311.974Z" fill="#D1E3FF"/>
<path d="M405.449 322.721H369.762V322.959H405.449V322.721Z" fill="#D1E3FF"/>
<path d="M362.745 322.845H347.038V323.083H362.745V322.845Z" fill="#D1E3FF"/>
<path d="M271.982 323.178H253.34V323.417H271.982V323.178Z" fill="#D1E3FF"/>
<path d="M225.377 327.323H183.762V327.561H225.377V327.323Z" fill="#D1E3FF"/>
<path d="M109.519 323.302H79.7208V323.541H109.519V323.302Z" fill="#D1E3FF"/>
<path d="M143.878 323.302H114.825V323.541H143.878V323.302Z" fill="#D1E3FF"/>
<path d="M65.3808 317.395H55.9738V317.634H65.3808V317.395Z" fill="#D1E3FF"/>
<path d="M226.572 269.482H41.9779C40.5319 269.48 39.1459 268.905 38.1242 267.885C37.1026 266.865 36.5287 265.483 36.5287 264.042V5.44014C36.5287 3.99897 37.1026 2.61669 38.1242 1.59674C39.1459 0.576794 40.5319 0.00252393 41.9779 0L226.572 0C228.02 0 229.408 0.573156 230.432 1.59338C231.456 2.6136 232.031 3.99732 232.031 5.44014V264.042C232.031 264.756 231.89 265.464 231.615 266.124C231.341 266.784 230.939 267.384 230.432 267.889C229.925 268.394 229.323 268.795 228.661 269.068C227.999 269.341 227.289 269.482 226.572 269.482ZM41.9779 0.238185C40.5952 0.240709 39.27 0.789884 38.2932 1.76517C37.3164 2.74045 36.7677 4.06214 36.7677 5.44014V264.042C36.7677 265.42 37.3164 266.742 38.2932 267.717C39.27 268.692 40.5952 269.241 41.9779 269.244H226.572C227.956 269.241 229.282 268.693 230.26 267.718C231.238 266.743 231.789 265.421 231.792 264.042V5.44014C231.789 4.06127 231.238 2.73959 230.26 1.76458C229.282 0.789573 227.956 0.240703 226.572 0.238185H41.9779Z" fill="#D1E3FF"/>
<path d="M433.364 269.482H248.761C247.314 269.48 245.927 268.906 244.903 267.886C243.88 266.866 243.304 265.484 243.302 264.042V5.44014C243.304 3.9981 243.88 2.61584 244.903 1.59616C245.927 0.576484 247.314 0.00251885 248.761 0L433.364 0C434.809 0.0050421 436.192 0.580423 437.212 1.6001C438.231 2.61978 438.804 4.00062 438.804 5.44014V264.042C438.804 265.482 438.231 266.862 437.212 267.882C436.192 268.902 434.809 269.477 433.364 269.482ZM248.761 0.238185C247.377 0.240703 246.051 0.789573 245.072 1.76458C244.094 2.73959 243.543 4.06127 243.541 5.44014V264.042C243.543 265.421 244.094 266.743 245.072 267.718C246.051 268.693 247.377 269.241 248.761 269.244H433.364C434.748 269.241 436.074 268.693 437.052 267.718C438.031 266.743 438.581 265.421 438.584 264.042V5.44014C438.581 4.06127 438.031 2.73959 437.052 1.76458C436.074 0.789573 434.748 0.240703 433.364 0.238185H248.761Z" fill="#D1E3FF"/>
<path d="M326.531 126.819L313.625 99.809V311.974H326.531V126.819Z" fill="#F3F8FF"/>
<path d="M306.933 126.819L313.625 99.809V311.974H306.933V126.819Z" fill="#E3EEFF"/>
<path d="M343.252 183.135L284.095 169.635V311.974H343.252V183.135Z" fill="#F3F8FF"/>
<path d="M253.397 311.965H284.095V169.626H253.397L253.397 311.965Z" fill="#E3EEFF"/>
<path d="M263.435 55.8972H213.083V311.965H263.435V55.8972Z" fill="#F3F8FF"/>
<path d="M186.946 311.974H213.073L213.073 55.9067H186.946L186.946 311.974Z" fill="#E3EEFF"/>
<path d="M256.657 42.797H213.083V55.9067H256.657V42.797Z" fill="#F3F8FF"/>
<path d="M256.657 52.9532H213.083V55.8972H256.657V52.9532Z" fill="#E3EEFF"/>
<path d="M193.724 55.8972H213.083V42.7875H193.724V55.8972Z" fill="#E3EEFF"/>
<path d="M249.879 29.6874H213.083V42.7971H249.879V29.6874Z" fill="#F3F8FF"/>
<path d="M249.879 39.853H213.083V42.797H249.879V39.853Z" fill="#E3EEFF"/>
<path d="M200.502 42.797H213.083V29.6873H200.502V42.797Z" fill="#E3EEFF"/>
<path d="M223.962 29.6874H226.409V11.3757H223.962V29.6874Z" fill="#E3EEFF"/>
<path d="M195.292 78.8296H158.524V311.974H195.292V78.8296Z" fill="#F3F8FF"/>
<path d="M139.442 311.965H158.524L158.524 78.8201H139.442L139.442 311.965Z" fill="#E3EEFF"/>
<path d="M410.564 139.357H382.677V311.974H410.564V139.357Z" fill="#F3F8FF"/>
<path d="M368.203 311.974H382.677V139.357H368.203V311.974Z" fill="#E3EEFF"/>
<path d="M129.347 160.737H103.955V311.965H129.347V160.737Z" fill="#F3F8FF"/>
<path d="M90.7722 194.406L103.955 160.737V311.974H90.7722V194.406Z" fill="#E3EEFF"/>
<path d="M98.4202 191.224H77.6846V311.965H98.4202V191.224Z" fill="#F3F8FF"/>
<path d="M66.92 212.137L77.6845 191.224V311.974H66.92V212.137Z" fill="#E3EEFF"/>
<path d="M43.976 311.974C43.5693 309.686 42.5955 307.535 41.1431 305.716C39.6907 303.898 37.8055 302.469 35.6588 301.561C37.538 304.695 38.3901 308.335 38.0966 311.974H43.976Z" fill="#E3EEFF"/>
<path d="M327.554 311.974C327.961 309.686 328.935 307.535 330.387 305.716C331.84 303.898 333.725 302.469 335.871 301.561C333.987 304.693 333.134 308.335 333.434 311.974H327.554Z" fill="#E3EEFF"/>
<path d="M408.212 311.974C408.212 311.974 408.68 299.779 413.795 296.235C411.701 301.218 412.16 311.974 412.16 311.974H408.212Z" fill="#E3EEFF"/>
<path d="M410.124 311.974C410.124 311.974 409.656 304.972 404.541 302.933C406.635 305.791 406.176 311.974 406.176 311.974H410.124Z" fill="#E3EEFF"/>
<path d="M323.176 311.974C323.176 311.974 323.682 300.427 332.965 296.235C328.816 302.161 329.055 311.974 329.055 311.974H323.176Z" fill="#E3EEFF"/>
<path d="M429.129 234.231L422.38 281.677L421.701 286.431H417.38L418.059 281.677L424.808 234.231H429.129Z" fill="#D1E3FF"/>
<path d="M243.675 234.231L236.925 281.677L236.256 286.431H231.926L232.604 281.677L239.354 234.231H243.675Z" fill="#D1E3FF"/>
<path d="M401.415 281.677L400.736 286.431L397.094 312.012H392.763L396.396 286.431L397.075 281.677H401.415Z" fill="#D1E3FF"/>
<path d="M215.941 281.677L215.272 286.431L211.639 312.012H207.309L210.951 286.431L211.62 281.677H215.941Z" fill="#D1E3FF"/>
<path d="M237.805 281.677L238.484 286.431L242.126 312.012H246.447L242.814 286.431L242.136 281.677H237.805Z" fill="#D1E3FF"/>
<path d="M423.269 281.677L423.948 286.431L427.581 312.012H431.902L428.269 286.431L427.59 281.677H423.269Z" fill="#D1E3FF"/>
<path d="M435.353 240.833H237.145L240.826 227.628H439.033L435.353 240.833Z" fill="#E3EEFF"/>
<path d="M430.831 240.833H232.614L236.295 227.628H434.512L430.831 240.833Z" fill="#D1E3FF"/>
<path d="M432.59 257.316H234.383L238.063 244.101H436.271L432.59 257.316Z" fill="#E3EEFF"/>
<path d="M428.068 257.316H229.861L233.541 244.101H431.749L428.068 257.316Z" fill="#D1E3FF"/>
<path d="M429.837 273.817H231.62L235.3 260.603H433.517L429.837 273.817Z" fill="#E3EEFF"/>
<path d="M425.305 273.817H227.098L230.778 260.603H428.986L425.305 273.817Z" fill="#D1E3FF"/>
<path d="M406.405 281.677H209.068V286.422H406.405V281.677Z" fill="#D1E3FF"/>
<path d="M433.517 281.677H406.396V286.422H433.517V281.677Z" fill="#E3EEFF"/>
<path d="M239 355C341.371 355 424.359 350.171 424.359 344.215C424.359 338.259 341.371 333.43 239 333.43C136.629 333.43 53.6412 338.259 53.6412 344.215C53.6412 350.171 136.629 355 239 355Z" fill="#F0F6FF"/>
<path opacity="0.7" d="M233.923 68.6828L137.329 56.9165L145.178 331.639L228.914 340.995L233.923 68.6828Z" fill="#9FC6FF"/>
<path opacity="0.7" d="M331.273 58.5267L233.924 68.6829L228.914 340.995L313.214 333.878L331.273 58.5267Z" fill="#9FC6FF"/>
<path opacity="0.7" d="M427.523 70.3216L331.273 58.5267L313.214 333.878L396.692 343.253L427.523 70.3216Z" fill="#9FC6FF"/>
<path d="M222.327 246.359C222.335 244.41 221.848 242.491 220.912 240.78C219.976 239.069 218.621 237.621 216.974 236.571C215.326 235.521 213.439 234.903 211.488 234.774C209.537 234.646 207.584 235.01 205.812 235.835C204.04 236.659 202.506 237.917 201.352 239.49C200.198 241.063 199.462 242.902 199.211 244.835C198.961 246.768 199.205 248.732 199.92 250.546C200.635 252.36 201.799 253.964 203.303 255.21C204.916 256.582 206.331 258.169 207.509 259.926L209.316 262.565L211.553 260.26C212.994 258.742 214.642 257.433 216.448 256.372C218.227 255.368 219.707 253.913 220.74 252.154C221.772 250.396 222.32 248.396 222.327 246.359Z" fill="white"/>
<path d="M399.321 101.257C399.329 99.3081 398.842 97.3889 397.906 95.6777C396.97 93.9665 395.615 92.5187 393.968 91.4688C392.32 90.4189 390.433 89.8009 388.482 89.6722C386.53 89.5435 384.578 89.9083 382.806 90.7328C381.034 91.5572 379.5 92.8145 378.346 94.3879C377.192 95.9613 376.455 97.7998 376.205 99.7327C375.955 101.666 376.199 103.63 376.914 105.444C377.629 107.258 378.793 108.862 380.297 110.108C381.912 111.474 383.328 113.058 384.503 114.815L386.31 117.454L388.557 115.157C389.993 113.635 391.642 112.326 393.451 111.27C395.229 110.265 396.708 108.81 397.739 107.051C398.77 105.293 399.316 103.294 399.321 101.257Z" fill="white"/>
<path d="M233.427 67.1204L331.895 56.8499L429.33 68.7782L398.126 344.968L313.654 335.44L228.36 342.643L143.62 333.173L135.676 55.2588L233.427 67.1204ZM245.415 302.914L315.126 254.124L315.404 253.924L330.575 245.559L317.449 235.546L228.541 203.772L210.98 193.635L185.082 254.486L232.805 294.606L245.415 302.914ZM174.891 245.949L199.527 187.042L151.669 159.412L153.17 227.705L174.891 245.949ZM233.618 81.9926L232.222 81.8211L149.738 71.8269L151.325 144.035L204.861 175.142L226.247 138.938L253.168 79.9824L235.004 81.8878L233.618 81.9926ZM269.162 78.3246L237.824 145.855L216.295 181.802L233.56 191.834L323.73 224.227L342.716 238.832L365.249 226.447L354.035 74.6566L331.417 71.8936L269.162 78.3246ZM367.936 76.3524L377.62 219.616L400.879 206.744L414.149 81.9926L367.936 76.3524ZM313.998 324.065L315.231 324.207L387.534 332.353L399.264 221.988L321.904 264.347L256.132 309.993L281.59 326.732L281.532 326.827L312.755 324.16L313.998 324.065ZM228.159 331.382L263.082 328.409L225.559 303.924L153.524 243.844L155.274 323.217L228.159 331.382Z" fill="#D4E9FF"/>
<path d="M342.133 247.712C341.926 247.712 341.725 247.645 341.56 247.521L320.097 231.106L230.702 198.608C230.644 198.592 230.589 198.566 230.539 198.532L208.207 185.289L183.351 244.73C183.231 244.921 183.046 245.062 182.831 245.13C182.615 245.198 182.383 245.188 182.174 245.101C181.965 245.014 181.794 244.857 181.691 244.656C181.588 244.456 181.56 244.225 181.611 244.006L206.926 183.564C206.981 183.441 207.061 183.33 207.161 183.24C207.262 183.149 207.38 183.081 207.509 183.04C207.637 182.998 207.771 182.983 207.905 182.996C208.038 183.009 208.167 183.05 208.284 183.116L231.476 196.874L320.929 229.391C321.02 229.42 321.104 229.465 321.178 229.524L342.248 245.635L371.664 229.438L362.324 108.355C362.305 108.102 362.387 107.852 362.553 107.66C362.719 107.468 362.955 107.35 363.208 107.331C363.462 107.312 363.713 107.394 363.905 107.559C364.098 107.724 364.217 107.959 364.236 108.212L373.567 229.886C373.58 230.065 373.542 230.244 373.457 230.403C373.373 230.561 373.245 230.693 373.089 230.782L342.602 247.579C342.46 247.663 342.298 247.709 342.133 247.712Z" fill="#407BFF"/>
<path d="M366.224 108.536C366.168 109.095 365.948 109.625 365.592 110.061C365.235 110.496 364.757 110.816 364.219 110.983C363.68 111.149 363.104 111.153 362.563 110.995C362.022 110.837 361.54 110.523 361.177 110.093C360.814 109.663 360.586 109.136 360.521 108.578C360.457 108.02 360.559 107.455 360.815 106.954C361.071 106.454 361.47 106.039 361.961 105.763C362.452 105.487 363.014 105.361 363.576 105.401C363.959 105.429 364.332 105.532 364.673 105.706C365.015 105.879 365.318 106.119 365.565 106.411C365.811 106.704 365.997 107.042 366.11 107.407C366.224 107.772 366.262 108.156 366.224 108.536Z" fill="#407BFF"/>
<path d="M185.33 244.597C185.274 245.156 185.054 245.686 184.697 246.121C184.341 246.556 183.863 246.877 183.324 247.043C182.786 247.209 182.21 247.214 181.669 247.056C181.128 246.897 180.646 246.584 180.282 246.154C179.919 245.724 179.691 245.197 179.627 244.639C179.563 244.08 179.665 243.516 179.921 243.015C180.177 242.514 180.576 242.1 181.067 241.824C181.558 241.548 182.12 241.422 182.682 241.462C183.064 241.489 183.437 241.593 183.779 241.766C184.12 241.94 184.423 242.18 184.67 242.472C184.917 242.764 185.103 243.103 185.216 243.468C185.329 243.833 185.368 244.216 185.33 244.597Z" fill="#407BFF"/>
<g style="mix-blend-mode:multiply" opacity="0.3">
<path d="M331.933 56.8403L233.427 67.1204L228.36 342.681L313.654 335.478L331.933 56.8403Z" fill="#14365B"/>
</g>
<path d="M161.153 141.853L155.159 133.555C155.061 133.424 154.993 133.273 154.961 133.113C154.928 132.953 154.932 132.788 154.971 132.629C155.011 132.471 155.085 132.323 155.188 132.196C155.292 132.07 155.422 131.968 155.57 131.897L177.558 120.464C177.879 120.307 178.246 120.266 178.594 120.347C178.943 120.429 179.252 120.629 179.47 120.912L185.454 129.21C185.554 129.34 185.624 129.49 185.658 129.65C185.692 129.81 185.69 129.976 185.651 130.135C185.613 130.294 185.539 130.442 185.436 130.569C185.332 130.696 185.201 130.798 185.053 130.868L163.065 142.301C162.743 142.458 162.377 142.499 162.029 142.418C161.68 142.336 161.371 142.137 161.153 141.853Z" fill="#0053CC"/>
<path d="M160.417 140.834L154.423 132.535C154.325 132.405 154.257 132.254 154.225 132.094C154.192 131.934 154.196 131.768 154.235 131.61C154.275 131.451 154.349 131.303 154.452 131.177C154.556 131.05 154.686 130.948 154.834 130.878L176.822 119.445C177.143 119.288 177.509 119.246 177.858 119.328C178.207 119.41 178.516 119.609 178.734 119.893L184.728 128.191C184.826 128.322 184.893 128.473 184.926 128.633C184.958 128.793 184.955 128.958 184.915 129.117C184.876 129.275 184.802 129.423 184.698 129.55C184.595 129.676 184.465 129.778 184.317 129.849L162.329 141.282C162.007 141.439 161.641 141.48 161.292 141.398C160.944 141.317 160.634 141.117 160.417 140.834Z" fill="#407BFF"/>
<path d="M183.552 130.211L173.677 135.365L172.768 135.841L168.332 138.157L167.386 138.652L163.839 140.5L156.335 130.096L157.205 129.639L158.132 129.163L166.669 124.704L169.336 123.303L176.038 119.807L178.523 123.246L179.154 124.132L182.558 128.839L183.093 129.572L183.552 130.211Z" fill="#DCE9FF"/>
<path d="M183.093 129.572L182.558 128.839L175.177 132.211L172.558 134.022L171.659 132.945L169.747 127.476L167.214 125.828L168.093 124.199L179.183 124.132L178.552 123.246L169.365 123.303L166.698 124.704L164.69 128.62L161.134 132.088L158.161 129.163L157.205 129.639L162.338 134.717L167.386 138.652L168.342 138.157L167.654 137.623L172.262 135.213L172.778 135.841L173.686 135.365L173.151 134.717L175.78 132.917L183.093 129.572ZM166.841 137.013L163.094 134.088L161.784 132.783L165.551 128.972L166.679 126.676L168.81 127.943L170.722 133.336L171.678 134.431L166.841 137.013Z" fill="white"/>
<path d="M105.963 124.075L105.409 125.171L104.835 126.381C104.453 127.2 104.089 128.038 103.745 128.886C103.066 130.592 102.397 132.297 101.833 134.05C100.697 137.547 99.825 141.123 99.2233 144.749C99.0512 145.655 98.9747 146.569 98.8409 147.474L98.7835 147.903V148.151C98.7548 148.25 98.7548 148.356 98.7835 148.456C98.8651 148.611 98.9963 148.735 99.1564 148.808C99.7366 149.12 100.362 149.339 101.011 149.456C102.716 149.773 104.449 149.914 106.183 149.875C108.009 149.875 109.94 149.742 111.756 149.57L112.77 153.486C111.799 153.853 110.81 154.171 109.806 154.439C108.85 154.734 107.808 154.991 106.776 155.201C104.626 155.67 102.425 155.859 100.227 155.763C98.9185 155.702 97.6279 155.435 96.4031 154.972C95.6475 154.684 94.9389 154.286 94.2999 153.791C93.552 153.214 92.9224 152.499 92.4452 151.685C91.9825 150.873 91.6776 149.981 91.5466 149.056C91.4826 148.64 91.4506 148.219 91.451 147.798V147.246V146.855C91.5275 145.826 91.5561 144.788 91.6709 143.759C92.084 139.639 92.8907 135.568 94.08 131.602C94.6573 129.614 95.3402 127.658 96.1258 125.742C96.5178 124.79 96.9289 123.837 97.3782 122.884C97.5981 122.408 97.8275 121.931 98.0761 121.465C98.3246 120.998 98.5541 120.512 98.8887 119.969L105.963 124.075Z" fill="#FF8B7B"/>
<path d="M111.078 149.37L116.986 143.854L117.416 151.962C117.416 151.962 113.047 154.668 110.16 153.01L111.078 149.37Z" fill="#FF8B7B"/>
<path d="M123.687 143.254L123.678 150.056L117.416 151.962L116.986 143.854L123.687 143.254Z" fill="#FF8B7B"/>
<path d="M101.097 340.385C100.381 340.367 99.6696 340.271 98.9747 340.099C98.9395 340.088 98.9077 340.069 98.8826 340.042C98.8574 340.015 98.8397 339.982 98.8313 339.947C98.8254 339.91 98.8305 339.872 98.8458 339.839C98.861 339.805 98.8859 339.776 98.9173 339.756C99.1946 339.575 101.623 338.013 102.56 338.432C102.663 338.48 102.753 338.555 102.818 338.649C102.884 338.742 102.923 338.852 102.933 338.965C102.97 339.145 102.96 339.331 102.905 339.506C102.85 339.682 102.751 339.84 102.617 339.966C102.177 340.282 101.638 340.431 101.097 340.385ZM99.5196 339.832C100.906 340.109 101.957 340.061 102.388 339.689C102.476 339.603 102.541 339.496 102.576 339.377C102.611 339.259 102.616 339.133 102.588 339.013C102.585 338.963 102.568 338.914 102.539 338.872C102.511 338.83 102.472 338.797 102.426 338.775C101.91 338.556 100.504 339.232 99.5196 339.832Z" fill="#0053CC"/>
<path d="M99.0225 340.128C98.9915 340.138 98.958 340.138 98.9269 340.128C98.8989 340.111 98.8755 340.087 98.8588 340.059C98.8422 340.03 98.8327 339.998 98.8313 339.966C98.8313 339.861 98.8313 337.565 99.7108 336.803C99.816 336.701 99.9431 336.626 100.082 336.581C100.222 336.536 100.369 336.524 100.514 336.545C100.665 336.547 100.81 336.599 100.927 336.695C101.044 336.79 101.124 336.922 101.154 337.069C101.336 337.975 99.8829 339.699 99.1181 340.128C99.0869 340.137 99.0537 340.137 99.0225 340.128ZM100.39 336.898C100.234 336.898 100.084 336.956 99.9689 337.06C99.4646 337.801 99.204 338.68 99.2233 339.575C99.9881 338.965 100.896 337.67 100.782 337.127C100.782 337.041 100.715 336.926 100.476 336.898H100.39Z" fill="#0053CC"/>
<path d="M137.52 340.385C136.672 340.367 135.827 340.271 134.997 340.099C134.958 340.091 134.924 340.071 134.898 340.042C134.872 340.013 134.856 339.976 134.853 339.937C134.847 339.899 134.853 339.861 134.87 339.826C134.887 339.792 134.915 339.764 134.949 339.747C135.312 339.556 138.505 337.936 139.48 338.47C139.573 338.519 139.652 338.591 139.709 338.68C139.766 338.768 139.799 338.87 139.805 338.975C139.832 339.15 139.815 339.328 139.755 339.495C139.695 339.661 139.594 339.81 139.461 339.928C138.886 340.297 138.201 340.458 137.52 340.385ZM135.608 339.832C137.387 340.128 138.706 340.051 139.193 339.613C139.276 339.536 139.338 339.441 139.375 339.334C139.412 339.228 139.421 339.114 139.404 339.003C139.403 338.962 139.391 338.921 139.369 338.886C139.347 338.851 139.316 338.822 139.279 338.803C138.763 338.508 136.937 339.175 135.627 339.832H135.608Z" fill="#0053CC"/>
<path d="M135.035 340.128C135.001 340.138 134.964 340.138 134.93 340.128C134.902 340.109 134.88 340.083 134.865 340.053C134.85 340.023 134.843 339.99 134.844 339.956C134.844 339.861 135.035 337.717 136.048 336.879C136.192 336.755 136.359 336.663 136.54 336.607C136.721 336.551 136.912 336.533 137.1 336.555C137.626 336.612 137.779 336.869 137.807 337.088C137.96 337.994 136.067 339.718 135.111 340.147L135.035 340.128ZM136.947 336.898C136.704 336.894 136.468 336.982 136.287 337.146C135.7 337.84 135.343 338.699 135.264 339.604C136.22 339.023 137.521 337.698 137.435 337.117C137.435 337.117 137.435 336.936 137.062 336.898H136.947Z" fill="#0053CC"/>
<path d="M116.068 92.568C117.024 97.3317 119.108 106.859 115.781 110.051C115.781 110.051 117.081 114.814 125.915 114.814C135.618 114.814 130.551 110.051 130.551 110.051C125.255 108.793 125.389 104.877 126.316 101.19L116.068 92.568Z" fill="#FF8B7B"/>
<path d="M134.653 81.5639C134.577 81.5668 134.502 81.5432 134.442 81.4973C134.399 81.4713 134.362 81.4366 134.333 81.3955C134.304 81.3543 134.284 81.3076 134.274 81.2583C134.264 81.209 134.264 81.1582 134.275 81.1092C134.286 81.0601 134.307 81.0138 134.337 80.9732C134.662 80.4696 135.101 80.0492 135.619 79.7463C136.138 79.4434 136.72 79.2664 137.32 79.2297C137.37 79.2297 137.419 79.2396 137.465 79.2589C137.511 79.2782 137.552 79.3064 137.587 79.3419C137.622 79.3774 137.649 79.4195 137.667 79.4657C137.685 79.5119 137.694 79.5612 137.693 79.6108C137.694 79.6608 137.685 79.7105 137.666 79.7569C137.647 79.8032 137.619 79.8452 137.583 79.8801C137.547 79.915 137.504 79.9421 137.457 79.9597C137.41 79.9773 137.36 79.985 137.31 79.9824C136.836 80.0171 136.377 80.163 135.97 80.408C135.563 80.653 135.22 80.9903 134.968 81.3925C134.932 81.443 134.885 81.4847 134.83 81.5144C134.775 81.5441 134.715 81.561 134.653 81.5639Z" fill="#0F264C"/>
<path d="M136.966 86.0227C137.542 87.49 138.317 88.8716 139.27 90.129C138.94 90.3626 138.563 90.522 138.165 90.596C137.768 90.6701 137.358 90.657 136.966 90.5577V86.0227Z" fill="#FF5652"/>
<path d="M136.383 84.9176C136.383 85.5559 136.727 86.0799 137.148 86.0799C137.568 86.0799 137.913 85.5559 137.913 84.9176C137.913 84.2793 137.578 83.7457 137.148 83.7457C136.718 83.7457 136.383 84.2697 136.383 84.9176Z" fill="#0F264C"/>
<path d="M136.966 83.7838L138.515 83.3361C138.515 83.3361 137.721 84.546 136.966 83.7838Z" fill="#0F264C"/>
<path d="M126.23 339.918H134.242L134.777 321.435H126.766L126.23 339.918Z" fill="#FF8B7B"/>
<path d="M89.8449 339.918H97.8562L100.428 321.435H92.4261L89.8449 339.918Z" fill="#FF8B7B"/>
<path d="M98.3533 338.994H89.3573C89.2023 338.99 89.0512 339.043 88.9331 339.144C88.8149 339.244 88.7379 339.384 88.7168 339.537L87.6939 346.625C87.6736 346.805 87.6917 346.986 87.747 347.158C87.8022 347.33 87.8933 347.488 88.0144 347.622C88.1354 347.756 88.2836 347.863 88.4492 347.936C88.6147 348.009 88.7939 348.046 88.9749 348.045C92.1106 347.997 93.6211 347.807 97.5789 347.807C100.017 347.807 103.573 348.064 106.929 348.064C110.284 348.064 110.475 344.749 109.07 344.453C102.799 343.11 101.804 341.252 99.6917 339.48C99.3155 339.168 98.8424 338.997 98.3533 338.994Z" fill="#14365B"/>
<path d="M134.509 338.994H125.513C125.359 338.988 125.208 339.041 125.091 339.142C124.974 339.243 124.899 339.384 124.882 339.537L123.85 346.625C123.829 346.805 123.848 346.988 123.904 347.16C123.959 347.333 124.051 347.491 124.173 347.626C124.296 347.76 124.445 347.867 124.612 347.939C124.778 348.011 124.959 348.047 125.14 348.045C128.276 347.997 129.787 347.807 133.744 347.807C136.173 347.807 141.211 348.064 144.566 348.064C147.922 348.064 148.113 344.749 146.708 344.453C140.436 343.11 137.97 341.252 135.848 339.48C135.473 339.166 134.999 338.993 134.509 338.994Z" fill="#14365B"/>
<path d="M134.767 321.435L134.5 330.962H126.488L126.756 321.435H134.767Z" fill="#EA7063"/>
<path d="M92.4165 321.435H100.428L99.099 330.962H91.0877L92.4165 321.435Z" fill="#EA7063"/>
<path d="M144.088 112.099C144.088 112.099 147.912 113.433 140.264 160.26H107.76C108.305 147.074 108.315 138.938 102.024 111.861C106.576 110.924 111.189 110.319 115.829 110.051C120.746 109.703 125.682 109.703 130.599 110.051C136.89 110.632 144.088 112.099 144.088 112.099Z" fill="#407BFF"/>
<path d="M137.588 132.678L143.132 138.881L143.84 126.724L137.588 132.678Z" fill="#236AE8"/>
<path d="M162.118 139.471C160.895 141.139 159.604 142.844 158.294 144.454C157.075 146.01 155.739 147.472 154.298 148.827L153.744 149.275L153.457 148.408C153.151 147.455 152.845 146.455 152.568 145.445C151.421 141.443 150.407 137.318 149.423 133.183L146.555 120.74L138.62 122.398C139.48 126.695 140.446 130.906 141.564 135.127C142.106 137.229 142.68 139.335 143.285 141.443C143.916 143.549 144.547 145.645 145.283 147.751C145.627 148.808 146.039 149.866 146.431 150.923L147.081 152.514C147.222 152.878 147.388 153.231 147.578 153.572C147.822 154.025 148.106 154.456 148.429 154.858C148.857 155.376 149.367 155.82 149.939 156.173C150.621 156.584 151.384 156.844 152.176 156.935C153.413 157.042 154.653 156.773 155.732 156.163C157.01 155.429 158.136 154.459 159.05 153.305C160.547 151.494 161.848 149.53 162.931 147.446C163.466 146.493 163.964 145.455 164.422 144.435C164.881 143.416 165.331 142.415 165.732 141.329L162.118 139.471Z" fill="#FF8B7B"/>
<path d="M144.088 112.099C147.387 112.938 149.7 126.467 149.7 126.467L136.966 135.098C136.966 135.098 131.88 118.978 134.423 115.367C137.062 111.594 139.27 110.87 144.088 112.099Z" fill="#407BFF"/>
<path d="M163.964 142.52L171.124 139.957L166.497 136.146C166.497 136.146 161.048 136.842 160.943 141.196L163.964 142.52Z" fill="#FF8B7B"/>
<path d="M175.091 137.423L175.98 135.565L166.487 136.175L171.105 139.957L175.091 137.423Z" fill="#FF8B7B"/>
<path d="M169.317 135.994L168.399 134.974L169.575 132.25L167.921 132.44L163.161 137.404L169.317 135.994Z" fill="#FF8B7B"/>
<path d="M114.72 82.7072C115.208 90.6054 115.246 93.9686 119.251 98.0272C125.274 104.125 134.911 101.838 136.804 93.9114C138.505 86.804 137.425 75.0758 129.662 71.9222C127.953 71.2201 126.092 70.9654 124.256 71.1823C122.42 71.3991 120.67 72.0803 119.173 73.161C117.675 74.2418 116.48 75.6863 115.701 77.3571C114.921 79.028 114.584 80.8697 114.72 82.7072Z" fill="#FF8B7B"/>
<path d="M131.67 160.27C131.67 160.27 130.867 169.74 129.576 183.012C128.008 199.208 125.752 221.121 123.305 238.461C122.942 241.052 122.569 243.549 122.206 245.902C118.305 270.835 101.03 329.114 101.03 329.114H90.1126C90.1126 329.114 99.1181 272.826 101.087 248.131C106.097 185.727 97.3208 174.685 107.779 160.222L131.67 160.27Z" fill="#0053CC"/>
<path d="M129.576 183.012C128.008 199.208 125.752 221.121 123.305 238.461C120.886 231.087 116.479 205.296 120.332 182.64C122.655 168.987 127.148 174.97 129.576 183.012Z" fill="#004DAA"/>
<path d="M140.264 160.26C140.264 160.26 146.574 221.74 146.048 246.073C145.503 271.388 136.201 329.124 136.201 329.124H125.37C125.37 329.124 127.081 272.864 126.125 248.007C125.083 220.902 116.441 160.26 116.441 160.26H140.264Z" fill="#0053CC"/>
<path d="M102.292 329.676H88.8507L88.6117 325.074L103.325 324.693L102.292 329.676Z" fill="#407BFF"/>
<path d="M137.588 329.676H124.156L123.639 324.693H138.62L137.588 329.676Z" fill="#407BFF"/>
<path d="M101.977 111.861C98.6497 112.595 94.166 124.771 94.166 124.771L108.191 132.85C108.191 132.85 112.301 123.322 110.714 119.168C109.06 114.872 105.906 111.003 101.977 111.861Z" fill="#407BFF"/>
<path d="M121.46 68.6638C110.38 67.8445 106.422 75.7808 108.315 85.3749C110.38 95.855 106.757 100.504 102.579 104.373C99.3571 107.383 98.1526 112.947 100.868 120.264C103.095 126.276 100.265 129.725 100.868 134.736C101.575 140.119 110.628 142.453 115.686 137.137C120.571 132.002 119.424 128.505 123.735 126.867C130.599 124.256 136.947 119.978 135.274 112.194C134.184 107.164 127.903 103.715 129.787 97.1793C132.005 89.7861 140.58 70.0644 121.46 68.6638Z" fill="#0F264C"/>
<path d="M113.085 70.7884L131.871 84.9175C132.043 82.4975 134.519 78.5532 136.268 76.1428C138.983 72.408 124.395 58.0026 113.085 70.7884Z" fill="#0F264C"/>
<path d="M129.442 85.8893C129.453 87.4061 129.994 88.8718 130.972 90.0338C132.272 91.5581 133.84 90.6626 134.175 88.8619C134.5 87.2422 134.175 84.4983 132.569 83.6314C130.962 82.7644 129.452 84.0506 129.442 85.8893Z" fill="#FF8B7B"/>
<path d="M107.254 158.364L105.781 161.222C105.667 161.451 105.934 161.68 106.317 161.68H140.417C140.714 161.68 140.953 161.537 140.972 161.356L141.268 158.45C141.268 158.25 141.039 158.078 140.714 158.078H107.779C107.674 158.072 107.568 158.095 107.475 158.146C107.382 158.197 107.306 158.272 107.254 158.364Z" fill="#0F264C"/>
<path d="M111.67 162.032H110.791C110.619 162.032 110.485 161.937 110.495 161.832L110.906 158.021C110.906 157.916 111.078 157.821 111.25 157.821H112.129C112.311 157.821 112.445 157.916 112.426 158.021L112.015 161.832C112.005 161.966 111.852 162.032 111.67 162.032Z" fill="#9FC6FF"/>
<path d="M133.056 162.032H132.177C131.995 162.032 131.861 161.937 131.871 161.832L132.291 158.021C132.291 157.916 132.454 157.821 132.626 157.821H133.515C133.687 157.821 133.821 157.916 133.811 158.021L133.391 161.832C133.381 161.966 133.228 162.032 133.056 162.032Z" fill="#9FC6FF"/>
<path d="M182.022 100.038C181.86 98.0697 181.2 96.1748 180.106 94.5287C179.012 92.8827 177.518 91.5388 175.763 90.622C174.008 89.7052 172.05 89.2452 170.069 89.2846C168.088 89.324 166.149 89.8615 164.432 90.8474C162.716 91.8332 161.277 93.2354 160.249 94.9236C159.222 96.6119 158.639 98.5315 158.555 100.504C158.471 102.477 158.889 104.439 159.769 106.208C160.649 107.977 161.964 109.495 163.591 110.622C165.341 111.866 166.911 113.344 168.256 115.015L170.302 117.52L172.367 115.005C173.682 113.344 175.231 111.881 176.965 110.661C178.674 109.492 180.042 107.894 180.93 106.028C181.818 104.162 182.195 102.096 182.022 100.038Z" fill="white"/>
<path d="M171.009 109.565C169.732 109.674 168.447 109.493 167.25 109.036C166.052 108.579 164.975 107.857 164.097 106.926C163.674 106.473 163.3 105.978 162.979 105.449C162.326 104.337 161.931 103.093 161.822 101.81C161.678 99.8763 162.201 97.9521 163.305 96.3555C164.408 94.7589 166.025 93.5856 167.889 93.0299C169.752 92.4742 171.75 92.5694 173.552 93.2997C175.354 94.03 176.852 95.3517 177.797 97.0459C177.883 97.1869 177.959 97.3333 178.026 97.4841C178.477 98.4166 178.749 99.4247 178.829 100.457C178.998 102.697 178.271 104.912 176.805 106.619C175.34 108.326 173.256 109.385 171.009 109.565Z" fill="#0F264C"/>
<path d="M171.009 109.565C169.732 109.674 168.447 109.493 167.25 109.036C166.052 108.579 164.975 107.857 164.097 106.926C163.879 106.643 163.678 106.347 163.495 106.04C163.065 105.118 162.8 104.128 162.711 103.115C162.536 101.298 162.952 99.4742 163.898 97.9119C164.844 96.3496 166.27 95.1322 167.964 94.4398C169.658 93.7474 171.531 93.6168 173.305 94.0672C175.079 94.5177 176.661 95.5254 177.816 96.9411C177.902 97.0821 177.979 97.2285 178.045 97.3794C178.496 98.3119 178.769 99.3199 178.848 100.352C178.947 101.471 178.821 102.598 178.479 103.669C178.138 104.739 177.586 105.731 176.857 106.588C176.128 107.445 175.236 108.149 174.232 108.66C173.229 109.171 172.133 109.479 171.009 109.565Z" fill="#407BFF"/>
</g>
<defs>
<clipPath id="clip0_0_122">
<rect width="478" height="355" fill="white"/>
</clipPath>
</defs>
</svg>
