<svg width="370" height="363" viewBox="0 0 370 363" fill="none" xmlns="http://www.w3.org/2000/svg">
<g clip-path="url(#clip0_0_1824)">
<path d="M335.508 283.748C260.703 379.532 85.5164 381.07 37.0194 327.865C17.6633 306.627 12.5528 270.161 5.04004 216.598C1.42428 190.816 0.911276 170.03 0.598787 155.769C-0.45977 107.269 -0.987095 83.0064 6.81341 66.5055C29.1577 19.2694 106.779 0.885163 156.949 0.0327472C160.45 -0.0272086 163.982 -0.00374767 167.545 0.10313C226.294 1.85488 292.581 26.3351 333.463 78.644C337.736 84.1018 341.682 89.808 345.281 95.7327C382.598 157.163 376.319 231.492 335.508 283.748Z" fill="#F4F7FA"/>
<path d="M189.676 331.036C173.599 328.103 169.624 293.546 169.116 288.631C167.853 276.329 166.287 261.08 175.176 248.179C188.023 229.532 209.896 234.389 215.116 218.905C218.324 209.391 210.429 206.466 210.056 188.276C209.95 183.053 209.564 164.202 222.733 148.964C232.123 138.099 244.059 134.106 250.371 132.549C252.429 127.344 254.822 119.449 254.766 109.82C254.677 94.3704 248.368 88.4074 251.641 80.2157C255.393 70.8313 268.768 65.9253 278.947 66.0205C306.06 66.2733 320.916 102.08 321.933 104.627C324.563 111.209 332.893 132.062 323.358 147.238C315.826 159.23 303.03 158.306 301.078 168.162C299.125 177.996 311.295 181.825 314.173 196.836C316.628 209.654 311.223 224.939 301.66 233.545C285.684 247.921 266.13 236.441 257.576 248.353C247.618 262.221 267.708 286.714 258.823 294.979C250.388 302.824 228.336 284.43 217.591 293.592C209.825 300.214 217.028 313.51 206.553 324.152C205.925 324.787 198.065 332.567 189.676 331.036Z" fill="#D8DEE8"/>
<g style="mix-blend-mode:soft-light" opacity="0.5">
<path d="M274.115 74.1627C284.416 76.5401 289.183 107.599 283.74 134.19C279.993 152.5 274.648 152.842 260.922 183.838C242.318 225.844 249.231 231.772 235.704 246.451C217.141 266.592 198.104 261.961 187.888 281.339C180.974 294.452 182.974 309.32 185.975 320.248C182.141 314.356 176.183 303.455 174.517 288.695C173.435 279.081 171.478 261.694 181.47 251.111C193.461 238.412 211.123 247.73 219.352 235.924C224.017 229.229 219.824 224.107 218.745 201.253C217.656 178.195 217.112 166.667 223.348 156.829C234.47 139.279 254.466 146.434 261.311 131.208C268.407 115.423 250.39 99.9998 259.763 84.0059C262.789 78.8549 269.032 72.9897 274.115 74.1627Z" fill="#F4F7FA"/>
</g>
<path d="M252.835 326.869C270.445 323.656 274.803 285.8 275.36 280.416C276.744 266.939 278.459 250.236 268.72 236.101C254.646 215.673 230.685 220.993 224.971 204.037C221.456 193.61 230.105 190.412 230.513 170.48C230.63 164.76 231.053 144.11 216.626 127.418C206.34 115.514 193.265 111.133 186.35 109.431C184.096 103.727 181.475 95.0795 181.533 84.5364C181.63 67.6119 188.542 61.0754 184.956 52.1068C180.845 41.823 166.193 36.4518 155.044 36.5561C125.343 36.8337 109.069 76.0578 107.955 78.8484C105.074 86.0587 95.9484 108.902 106.392 125.527C114.643 138.66 128.657 137.648 130.799 148.447C132.932 159.22 119.608 163.415 116.456 179.858C113.766 193.9 119.686 210.643 130.162 220.072C147.663 235.821 169.084 223.243 178.455 236.292C189.363 251.483 167.355 278.316 177.088 287.37C186.332 295.964 210.485 275.815 222.255 285.851C230.763 293.106 222.872 307.67 234.347 319.327C235.033 320.022 243.645 328.546 252.835 326.869Z" fill="#56CCF2"/>
<g style="mix-blend-mode:soft-light" opacity="0.5">
<path d="M160.336 45.4882C149.051 48.095 143.828 82.1134 149.789 111.245C153.894 131.303 159.748 131.677 174.788 165.632C195.168 211.641 187.595 218.141 202.413 234.221C222.747 256.286 243.602 251.215 254.793 272.439C262.367 286.804 260.176 303.092 256.887 315.06C261.088 308.608 267.616 296.665 269.436 280.498C270.621 269.965 272.765 250.911 261.819 239.325C248.684 225.414 229.336 235.621 220.322 222.688C215.211 215.356 219.801 209.744 220.986 184.703C222.178 159.445 222.775 146.815 215.944 136.037C203.761 116.813 181.853 124.651 174.356 107.971C166.584 90.6806 186.322 73.7848 176.048 56.2633C172.743 50.6092 165.903 44.1966 160.336 45.4882Z" fill="#F4F7FA"/>
</g>
<path d="M182.142 333.047C172.525 331.393 167.21 307.669 169.27 289.267C170.067 282.148 170.86 275.067 176.041 268.615C184.773 257.727 194.867 262.498 202.549 253.717C213.891 240.749 199.778 221.318 210.696 210.775C218.725 203.02 228.906 211.078 238.49 202.674C249.607 192.925 242.835 176.007 252.401 171.702C257.957 169.201 261.706 174.251 276.749 173.189C282.636 172.773 285.578 172.565 288.271 170.941C297.711 165.245 293.149 152.358 300.7 144.462C309.014 135.77 327.021 138.336 337.73 143.139C356.92 151.742 365.556 173.283 365.854 190.415C365.918 194.085 365.947 217.988 348.829 230.645C336.38 239.848 319.645 239.572 316.929 239.527C306.354 239.353 304.237 236.279 300.482 238.502C289.63 244.926 304.769 272.115 290.904 289.464C285.243 296.545 275.597 300.921 267.043 301.313C253.211 301.947 247.252 291.942 239.906 295.375C230.401 299.817 236.148 318.535 225.724 324.05C218.349 327.952 212.683 320.056 200.247 323.347C189.199 326.263 187.837 334.027 182.142 333.047Z" fill="#56CCF2"/>
<g style="mix-blend-mode:soft-light" opacity="0.5">
<path d="M182.684 315.68C187.072 316.769 189.407 304.84 204.383 289.177C220.737 272.074 229.528 274.188 244.747 258.808C262.126 241.243 254.106 235.007 268.669 221.401C288.406 202.966 305.182 212.51 328.918 190.925C336.039 184.451 345.516 175.583 343.974 164.701C342.636 155.266 333.189 145.553 322.476 145.534C322.026 145.534 313.018 145.657 307.268 152.589C300.213 161.093 306.281 169.937 299.739 176.386C296.314 179.765 290.972 180.156 280.288 180.939C264.924 182.065 262.362 178.812 258.154 181.622C248.649 187.973 258.154 206.973 248.504 214.858C240.222 221.623 228.299 211.639 221.044 218.117C212.287 225.937 225.926 243.812 216.903 256.883C209.132 268.138 194.605 261.286 184.137 273.045C171.786 286.936 176.352 314.116 182.684 315.68Z" fill="#F4F7FA"/>
</g>
<path d="M238.325 323.17C245.631 323.679 246.622 310.244 259.376 306.226C273.486 301.775 282.442 315.008 292.272 309.952C303.317 304.271 297.096 284.947 309.501 277.695C317.974 272.742 323.875 280.005 334.533 275.458C345.641 270.719 356.485 255.461 352.219 240.5C348.661 228.017 335.831 220.104 325.504 220.029C317.058 219.968 314.658 225.182 307.276 223.646C298.072 221.731 298.292 212.906 288.645 208.932C279.049 204.977 265.929 208.399 258.71 216.244C252.706 222.768 252.094 230.926 251.559 238.043C250.127 257.145 258.835 264.502 254.182 271.845C248.378 281.005 232.477 273.241 225.23 282.323C216.155 293.683 227.819 322.436 238.325 323.17Z" fill="#2F80ED"/>
<g style="mix-blend-mode:soft-light" opacity="0.5">
<path d="M234.781 309.115C237.453 309.648 238.242 300.944 246.642 293.675C256.277 285.341 263.526 289.615 274.303 283.035C287.657 274.881 282.583 264.62 294.471 256.348C311.138 244.747 331.84 257.444 337.439 247.976C340.708 242.444 337.038 232.363 331.141 229.077C324.848 225.566 320.388 232.228 309.587 230.651C299.47 229.173 298.901 222.675 286.411 219.41C280.325 217.818 272.329 215.729 267.221 219.648C257.212 227.328 262.646 254.738 264.303 263.106C265.829 270.796 267.245 273.793 265.242 276.922C259.999 285.133 242.609 276.661 234.563 285.524C227.837 292.94 231.328 308.427 234.781 309.115Z" fill="#F4F7FA"/>
</g>
<path d="M368.443 324.757L10.6429 321.703V330.737C10.6429 333.189 12.2053 335.274 14.3172 335.646L115.491 353.434C116.689 353.645 117.909 353.702 119.121 353.601L364.555 333.319C366.746 333.138 368.444 331.047 368.444 328.528L368.443 324.757Z" fill="#26264F"/>
<path d="M238.597 310.281L14.3393 326.806C10.3265 327.102 7.06355 323.96 7.06355 319.787V152.616C7.06355 148.445 10.3265 145.057 14.3393 145.057H238.597C241.903 145.057 244.576 148.114 244.576 151.886V303.01C244.576 306.782 241.903 310.037 238.597 310.281Z" fill="#26264F"/>
<path d="M242.179 310.281L17.9147 326.806C13.9019 327.102 10.6389 323.96 10.6389 319.787V152.616C10.6389 148.445 13.9019 145.057 17.9147 145.057H242.179C245.486 145.057 248.158 148.114 248.158 151.886V303.01C248.151 306.782 245.48 310.037 242.179 310.281Z" fill="url(#paint0_linear_0_1824)"/>
<path d="M235.187 299.627L26.3142 313.986C23.0487 314.21 20.3951 311.632 20.3951 308.225V161.861C20.3951 158.455 23.0487 155.682 26.3142 155.667L235.187 154.767C237.914 154.755 240.12 157.26 240.12 160.364V293.67C240.12 296.772 237.914 299.439 235.187 299.627Z" fill="#2F80ED"/>
<path d="M137.964 149.629C137.964 151.182 136.81 152.445 135.385 152.449C133.959 152.453 132.8 151.196 132.8 149.639C132.8 148.083 133.958 146.819 135.385 146.819C136.812 146.819 137.964 148.079 137.964 149.629Z" fill="white"/>
<g style="mix-blend-mode:soft-light" opacity="0.48">
<path d="M17.9147 326.806L241.037 310.364L242.172 310.281C243.689 310.168 245.07 309.418 246.123 308.28C230.066 307.4 220.094 301.696 213.66 295.802C200.742 283.966 202.984 272.295 189.052 264.513C171.675 254.807 158.011 267.106 144.826 254.971C136.831 247.614 140.757 242.128 130.92 231.134C120.024 218.957 112.931 223.053 101.982 212.091C88.1375 198.233 95.0618 187.457 83.1364 177.503C68.6695 165.434 53.0671 176.605 39.2955 165.03C33.3556 160.038 30.0966 152.778 28.3948 145.06H17.9147C13.9019 145.06 10.6389 148.449 10.6389 152.62V319.787C10.6389 323.96 13.9019 327.101 17.9147 326.806Z" fill="white"/>
</g>
<path d="M251.111 309.364L10.6389 326.759L115.491 345.193C116.689 345.404 117.909 345.46 119.121 345.36L368.444 324.757L254.939 309.482C253.67 309.311 252.388 309.271 251.111 309.364Z" fill="url(#paint1_linear_0_1824)"/>
<path d="M45.7276 326.908L245.928 312.211L307.888 320.482L109.413 336.193L45.7276 326.908Z" fill="#26264F"/>
<path d="M343.178 32.2666V141.583C343.178 146.625 339.751 150.797 335.443 150.9L299.547 151.778L188.828 154.489C184.326 154.599 180.135 150.931 179.632 146.099C179.593 145.73 179.097 145.362 179.097 144.981V28.5129C179.097 26.5461 180.11 24.7331 181.019 23.2276C181.045 23.1846 181.309 23.1494 181.334 23.1103C182.917 20.5726 185.705 18.9538 188.723 19.0359L205.519 19.4817L335.414 22.9305C339.724 23.0452 343.178 27.2225 343.178 32.2666Z" fill="white"/>
<path d="M188.844 151.392C185.555 151.469 182.872 148.565 182.872 144.92V28.5937C182.872 24.9442 185.555 22.0494 188.844 22.1328L335.497 25.8566C338.427 25.9309 340.804 28.7814 340.804 32.2106V141.633C340.804 145.063 338.427 147.908 335.497 147.976L188.844 151.392Z" fill="url(#paint2_linear_0_1824)"/>
<path d="M335.497 22.9318L188.844 19.0373C184.001 18.9069 180.061 23.1586 180.061 28.5286V35.5043L343.286 38.8162V32.268C343.286 27.2265 339.806 23.0465 335.497 22.9318Z" fill="#D8DEE8"/>
<path d="M195.687 27.6826C195.692 28.058 195.621 28.4304 195.478 28.7778C195.336 29.1251 195.125 29.4403 194.859 29.7045C194.593 29.9688 194.276 30.1767 193.928 30.3159C193.579 30.4551 193.207 30.5228 192.832 30.5149C192.063 30.4908 191.333 30.1676 190.799 29.614C190.264 29.0603 189.966 28.3198 189.967 27.5497C189.963 27.1734 190.034 26.8 190.176 26.4519C190.319 26.1038 190.531 25.788 190.798 25.5235C191.065 25.259 191.383 25.0512 191.733 24.9125C192.082 24.7738 192.456 24.707 192.832 24.7161C193.599 24.7435 194.326 25.0681 194.858 25.6216C195.391 26.1751 195.688 26.914 195.687 27.6826Z" fill="white"/>
<path d="M205.658 27.9146C205.663 28.2877 205.594 28.6581 205.453 29.0037C205.313 29.3493 205.104 29.6631 204.84 29.9264C204.576 30.1898 204.262 30.3973 203.916 30.5367C203.57 30.6761 203.2 30.7445 202.827 30.7378C202.064 30.7104 201.341 30.3868 200.811 29.8354C200.281 29.284 199.987 28.548 199.989 27.783C199.984 27.4094 200.054 27.0385 200.195 26.6925C200.336 26.3465 200.545 26.0325 200.81 25.7692C201.075 25.5059 201.39 25.2986 201.737 25.1598C202.083 25.021 202.454 24.9534 202.827 24.9612C203.59 24.9899 204.311 25.314 204.839 25.865C205.367 26.4161 205.661 27.151 205.658 27.9146Z" fill="white"/>
<path d="M215.555 28.1532C215.561 28.5241 215.492 28.8925 215.353 29.2364C215.214 29.5803 215.007 29.8927 214.745 30.155C214.483 30.4172 214.171 30.6241 213.827 30.7632C213.484 30.9022 213.116 30.9707 212.745 30.9646C211.19 30.9307 209.929 29.613 209.929 28.0215C209.923 27.65 209.992 27.2811 210.131 26.9368C210.271 26.5925 210.478 26.2798 210.741 26.0173C211.004 25.7549 211.317 25.5481 211.661 25.4092C212.005 25.2703 212.374 25.2021 212.745 25.2088C214.298 25.2414 215.555 26.5591 215.555 28.1532Z" fill="white"/>
<path d="M334.197 141.815L190.299 144.812V53.1951L334.197 55.1659V141.815Z" fill="#D8DEE8"/>
<g opacity="0.5">
<path d="M267.241 45.0372L190.299 43.7078V48.6567L267.241 49.8415V45.0372Z" fill="white"/>
<path d="M325.888 46.0499V50.746L334.197 50.8738V46.1933L325.888 46.0499Z" fill="white"/>
</g>
<g style="mix-blend-mode:soft-light" opacity="0.5">
<path d="M300.484 151.778L189.752 154.489C185.25 154.599 181.029 150.932 180.521 146.099C180.521 145.992 180 145.891 180 145.783V28.4595C180 26.5174 181.018 24.7279 181.896 23.2277C181.921 23.1847 182.199 23.1495 182.224 23.1091C183.798 20.5023 186.621 18.8326 189.674 18.9148L206.379 19.3592C206.391 19.3996 206.437 19.4413 206.451 19.4817C206.762 20.501 207.119 21.5346 207.493 22.5838C209.074 27.0589 211.125 31.3533 213.612 35.3948C213.774 35.6555 213.942 35.9162 214.11 36.1768C215.924 39.0411 217.999 41.7307 220.31 44.2109C221.976 45.9962 223.768 47.6593 225.672 49.1872C227.769 50.8669 229.983 52.3949 232.298 53.7595C248.556 63.415 266.816 64.6767 278.928 84.0359C289.309 100.628 281.873 109.336 291.913 134.721C293.004 137.481 294.173 140.121 295.421 142.64C296.478 144.793 297.582 146.864 298.734 148.853C299.309 149.849 299.893 150.825 300.484 151.778Z" fill="white"/>
</g>
<mask id="mask0_0_1824" style="mask-type:luminance" maskUnits="userSpaceOnUse" x="198" y="11" width="129" height="134">
<path d="M326.361 142.245L198.641 144.092V11.7852L326.361 15.4191V142.245Z" fill="white"/>
</mask>
<g mask="url(#mask0_0_1824)">
<path d="M241.893 140.931C216.909 137.08 211.346 134.237 208.766 128.93C205.012 121.209 207.743 108.643 214.154 100.907C219.753 94.1489 226.724 92.8351 226.523 88.1598C226.357 84.3135 221.583 83.7974 218.071 76.5336C217.043 74.4117 215.05 70.2891 215.918 65.3519C217.189 58.1272 223.656 54.4177 224.18 54.1271C230.918 50.402 234.75 54.8544 239.804 51.5073C246.106 47.3364 243.251 38.3 249.148 35.8171C253.429 34.0132 258.886 37.1205 260.307 37.9273C265.04 40.6214 264.543 43.249 268.532 44.933C273.201 46.9037 275.433 43.9463 280.833 45.2393C285.286 46.3041 288.503 49.5926 291.119 52.8876C296.996 60.2778 294.077 64.5842 298.41 73.6401C304.496 86.3507 313.644 84.9392 315.268 95.0704C316.114 100.366 313.941 102.768 315.61 110.878C316.736 116.352 318.153 117.323 318.404 120.541C319.126 129.795 308.681 138.031 306.725 139.485C294.238 148.773 276.813 146.317 241.893 140.931Z" fill="#333333"/>
<path style="mix-blend-mode:multiply" opacity="0.7" d="M281.619 115.885C265.268 114.74 254.132 130.365 249.7 126.533C245.489 122.894 257.357 110.439 253.31 95.9723C249.331 81.7445 233.643 78.6829 234.888 70.6436C236.294 61.5512 257.264 59.4592 256.775 52.7872C256.484 48.847 249.093 47.8916 247.612 41.6015C247.21 39.8928 247.344 38.2127 247.763 36.6408C243.684 39.8875 245.54 47.7196 239.799 51.519C234.747 54.8661 230.915 50.4137 224.174 54.1388C223.654 54.4294 217.184 58.1389 215.913 65.3636C215.045 70.3008 217.038 74.4234 218.065 76.5453C221.581 83.8091 226.351 84.3252 226.518 88.1715C226.721 92.8468 219.747 94.1671 214.149 100.919C207.737 108.652 205.007 121.218 208.761 128.942C211.34 134.249 216.904 137.092 241.887 140.943C276.813 146.329 294.229 148.784 306.729 139.499C311.546 135.916 317.218 129.841 318.433 124.473C316.008 126.778 313.628 127.909 311.402 128.347C301.031 130.378 296.214 116.914 281.619 115.885Z" fill="url(#paint3_linear_0_1824)"/>
<path d="M214.028 174.672C210.239 165.167 212.549 150.153 213.035 146.991C214.933 134.659 219.399 127.009 221.025 124.292C232.139 105.715 248.952 105.853 261.564 105.956C267.781 106.006 274.206 105.866 282.041 108.764C282.041 108.764 288.224 111.051 293.444 114.864C308.987 126.217 321.213 163.394 308.721 177.662C300.736 186.786 292.527 175.436 256.671 181.515C242.162 183.976 226.808 187.993 217.656 180.058C216.138 178.743 214.948 176.984 214.028 174.672Z" fill="#2D9CDB"/>
<path d="M254.953 83.6879C254.953 83.6879 257.612 103.597 244.102 107.576C242.54 108.038 242.058 110.104 243.243 111.256L259.887 127.462C260.122 127.693 260.403 127.872 260.711 127.989C261.02 128.106 261.349 128.157 261.678 128.14C262.007 128.123 262.33 128.038 262.624 127.89C262.919 127.742 263.18 127.535 263.39 127.281L278.309 109.891C279.282 108.756 278.856 106.953 277.494 106.429C272.72 104.592 264.137 99.2217 265.941 84.702L254.953 83.6879Z" fill="#FF8B7B"/>
<path d="M246.674 72.5622C246.674 72.7811 250.319 92.2707 259.643 92.2929C268.419 92.3137 271.74 78.0938 272.82 71.4595L273.164 68.0707C271.923 68.486 270.586 68.5128 269.33 68.1476C268.931 68.029 266.389 67.2796 265.444 65.0716C264.39 62.6108 266.327 60.687 265.224 58.5338C264.584 57.2839 263.295 56.6843 262.311 56.3728C262.962 57.3868 264.238 59.6495 263.519 61.6802C263.036 63.0448 261.683 64.3417 258.661 65.1081C249.991 67.3108 246.588 68.1476 246.674 72.5622Z" fill="#FF8B7B"/>
<path d="M248.963 74.9109C248.963 74.9109 244.132 70.6097 243.71 73.2165C242.831 78.6412 246.965 81.6637 249.206 80.0566C251.447 78.4496 248.963 74.9109 248.963 74.9109Z" fill="#FF8B7B"/>
<path d="M270.075 75.0817C270.075 75.0817 274.824 70.9108 275.236 73.4889C276.097 78.868 272.041 81.8111 269.836 80.1883C267.63 78.5656 270.075 75.0817 270.075 75.0817Z" fill="#FF8B7B"/>
</g>
<path d="M245.628 133.677C245.628 136.522 243.415 138.858 240.669 138.89C237.923 138.923 235.694 136.642 235.694 133.788C235.694 130.933 237.923 128.597 240.669 128.574C243.415 128.551 245.628 130.831 245.628 133.677Z" fill="white"/>
<path d="M268.666 133.416C268.666 136.239 266.482 138.557 263.782 138.592C261.083 138.627 258.883 136.359 258.883 133.527C258.883 130.695 261.078 128.377 263.782 128.351C266.487 128.325 268.666 130.599 268.666 133.416Z" fill="white"/>
<path d="M291.356 133.159C291.356 135.96 289.205 138.261 286.546 138.295C283.887 138.329 281.721 136.079 281.721 133.267C281.721 130.456 283.883 128.157 286.546 128.131C289.209 128.105 291.356 130.357 291.356 133.159Z" fill="white"/>
<path d="M320.452 192.608V282.524C320.452 286.674 317.639 290.249 314.072 290.504L284.451 292.625H284.42L193.752 299.113C193.171 299.155 192.587 299.118 192.015 299.004C191.911 298.985 191.811 298.958 191.707 298.936C191.506 298.881 191.307 298.822 191.112 298.753C190.916 298.684 190.721 298.603 190.534 298.512C190.252 298.378 189.98 298.225 189.72 298.053C189.548 297.939 189.379 297.816 189.22 297.688C189.061 297.561 188.897 297.42 188.747 297.275C187.484 296.027 186.7 294.372 186.534 292.603C186.501 292.307 186.375 291.997 186.375 291.69V196.804C186.375 196.718 186.375 196.636 186.375 196.543C186.375 196.45 186.388 196.348 186.393 196.247C186.512 194.868 187.012 193.58 187.661 192.467C187.68 192.431 187.756 192.398 187.78 192.367C188.821 190.636 190.461 189.369 192.346 188.913C192.569 188.858 192.794 188.815 193.021 188.783C193.253 188.756 193.486 188.743 193.72 188.744L207.365 188.382H207.374L236.822 187.516L314.063 185.3C314.143 185.295 314.224 185.295 314.304 185.3C314.399 185.3 314.495 185.3 314.59 185.3C314.686 185.3 314.777 185.313 314.868 185.322C318.044 185.699 320.452 188.777 320.452 192.608Z" fill="white"/>
<path d="M193.743 296.596C191.067 296.785 188.887 294.521 188.887 291.551V196.778C188.887 193.807 191.067 191.327 193.743 191.247L314.137 187.697C316.563 187.625 318.534 189.862 318.534 192.682V282.684C318.534 285.504 316.563 287.938 314.137 288.11L193.743 296.596Z" fill="url(#paint4_linear_0_1824)"/>
<path d="M314.143 185.292L193.743 188.73C189.805 188.843 186.602 192.48 186.602 196.856V202.537L320.59 198.009V192.622C320.595 188.47 317.711 185.19 314.143 185.292Z" fill="#D8DEE8"/>
<path d="M199.32 195.466C199.32 196.094 199.079 196.697 198.647 197.151C198.214 197.605 197.623 197.874 196.997 197.902C196.692 197.912 196.388 197.86 196.104 197.749C195.82 197.638 195.561 197.47 195.344 197.256C195.126 197.042 194.954 196.786 194.838 196.503C194.722 196.221 194.665 195.918 194.669 195.612C194.668 194.984 194.91 194.38 195.344 193.926C195.778 193.471 196.37 193.203 196.997 193.175C197.302 193.166 197.605 193.22 197.888 193.331C198.172 193.443 198.43 193.611 198.647 193.825C198.864 194.039 199.035 194.295 199.151 194.577C199.266 194.859 199.324 195.161 199.32 195.466Z" fill="white"/>
<path d="M207.445 195.214C207.446 195.838 207.207 196.438 206.777 196.891C206.347 197.343 205.76 197.612 205.137 197.642C204.834 197.651 204.532 197.598 204.249 197.486C203.966 197.375 203.709 197.208 203.493 196.994C203.277 196.781 203.106 196.525 202.992 196.244C202.877 195.963 202.82 195.661 202.825 195.357C202.823 194.732 203.063 194.13 203.494 193.678C203.925 193.225 204.513 192.957 205.137 192.929C205.44 192.921 205.742 192.974 206.024 193.086C206.306 193.197 206.562 193.365 206.778 193.578C206.994 193.792 207.164 194.047 207.278 194.328C207.393 194.609 207.449 194.91 207.445 195.214Z" fill="white"/>
<path d="M215.52 194.961C215.522 195.582 215.285 196.181 214.858 196.632C214.43 197.082 213.846 197.351 213.226 197.381C212.924 197.389 212.623 197.336 212.343 197.224C212.062 197.113 211.807 196.946 211.592 196.733C211.378 196.52 211.208 196.266 211.095 195.986C210.981 195.706 210.925 195.406 210.93 195.104C210.928 194.482 211.165 193.883 211.594 193.432C212.022 192.981 212.607 192.713 213.228 192.684C213.53 192.676 213.83 192.73 214.11 192.842C214.39 192.953 214.645 193.12 214.859 193.333C215.073 193.546 215.242 193.8 215.356 194.079C215.469 194.359 215.525 194.659 215.52 194.961Z" fill="white"/>
<path d="M313.066 283.095L194.933 291.176V216.502L313.066 211.854V283.095Z" fill="#D8DEE8"/>
<g opacity="0.5">
<path d="M257.842 206.483L194.933 208.768V212.802L257.842 210.418V206.483Z" fill="white"/>
<path d="M306.188 204.726V208.585L313.066 208.324V204.477L306.188 204.726Z" fill="white"/>
</g>
<g style="mix-blend-mode:soft-light" opacity="0.5">
<path d="M284.455 292.634L193.751 299.117C193.17 299.159 192.585 299.122 192.014 299.008C191.91 298.989 191.81 298.962 191.705 298.94C191.505 298.885 191.306 298.826 191.11 298.757C190.915 298.688 190.72 298.607 190.532 298.516C190.251 298.382 189.979 298.229 189.719 298.057C189.547 297.943 189.377 297.82 189.219 297.692C189.06 297.565 188.896 297.424 188.746 297.279C187.474 296.036 186.683 294.382 186.514 292.61C186.514 292.524 186.37 292.433 186.37 292.35V196.798C186.37 196.712 186.37 196.63 186.37 196.538C186.37 196.445 186.383 196.342 186.388 196.242C186.497 194.863 187.001 193.58 187.633 192.462C187.651 192.426 187.742 192.393 187.763 192.362C189.045 190.168 191.278 188.685 193.752 188.612L207.282 188.23C207.291 188.263 207.274 188.294 207.274 188.325C207.728 189.144 207.859 189.967 208.163 190.802C209.451 194.371 211.132 197.787 213.173 200.985C213.304 201.193 213.453 201.399 213.589 201.604C215.069 203.858 216.765 205.963 218.654 207.886C220.016 209.273 221.482 210.554 223.039 211.718C224.754 213.002 226.563 214.154 228.453 215.162C231.187 216.64 233.994 217.823 236.812 218.907C247.707 223.092 258.789 225.753 266.698 237.936C274.249 249.565 270.343 256.731 275.039 272.31C275.529 273.939 276.11 275.664 276.814 277.492C276.997 277.971 277.188 278.458 277.387 278.954C278.283 281.169 279.252 283.289 280.274 285.309C281.146 287.033 282.058 288.689 283.008 290.277C283.481 291.07 283.957 291.841 284.441 292.599C284.45 292.629 284.455 292.629 284.455 292.634Z" fill="white"/>
</g>
<mask id="mask1_0_1824" style="mask-type:luminance" maskUnits="userSpaceOnUse" x="201" y="176" width="106" height="115">
<path d="M306.362 283.594L201.822 290.081V179.63L306.362 176.901V283.594Z" fill="white"/>
</mask>
<g mask="url(#mask1_0_1824)">
<path d="M210.042 312.271C206.396 302.756 211.538 286.452 214.768 279.024C224.143 257.463 241.219 255.872 255.077 254.58C268.567 253.322 281.476 252.119 290.852 267.403C296.947 277.336 302.528 295.817 298.808 306.101C294.885 316.941 283.938 309.521 257.578 311.228C228.043 313.14 214.576 324.111 210.042 312.271Z" fill="url(#paint5_linear_0_1824)"/>
<path d="M267.813 256.104C267.813 258.711 261.729 262.17 254.188 262.578C246.608 262.987 240.437 260.164 240.437 257.532C240.437 254.901 246.608 255.759 254.188 255.366C261.729 254.976 267.813 253.497 267.813 256.104Z" fill="url(#paint6_linear_0_1824)"/>
<path d="M249.146 238.781C247.063 238.877 251.88 253.927 244.279 256.418C243.542 256.659 243.421 257.695 244.092 258.038C246.135 259.081 249.951 260.337 256.201 260.005C259.287 259.832 262.253 258.746 264.724 256.886C265.245 256.495 265.194 255.675 264.634 255.401C262.316 254.271 259.092 250.448 260.055 238.667L249.146 238.781Z" fill="url(#paint7_linear_0_1824)"/>
<path d="M242.788 220.704C242.82 220.896 243.454 234.848 246.524 241.688C247.403 243.644 251.761 243.2 254.573 242.826C257.013 242.502 260.823 243.249 261.901 241.442C266.207 234.195 265.478 216.776 265.478 216.776C265.478 216.776 263.272 211.051 254.194 211.548C245.062 212.044 242.788 220.704 242.788 220.704Z" fill="url(#paint8_linear_0_1824)"/>
<path d="M244.934 228.123C244.934 228.123 243.016 225.885 241.206 225.646C239.397 225.408 238.212 230.339 240.686 233.403C243.159 236.467 246.002 233.708 246.002 233.708L244.934 228.123Z" fill="url(#paint9_linear_0_1824)"/>
<path d="M263.495 227.333C263.495 227.333 265.386 224.952 267.166 224.57C268.946 224.188 270.102 228.967 267.678 232.214C265.254 235.461 262.437 232.983 262.437 232.983L263.495 227.333Z" fill="url(#paint10_linear_0_1824)"/>
<path d="M243.433 228.012C243.674 228.463 243.954 228.88 244.137 228.821C244.918 228.578 241.924 220.846 244.676 217.985C246.099 216.51 247.7 217.741 253.505 217.241C259.311 216.74 260.815 215.227 262.57 216.272C264.166 217.223 265.594 220.052 264.411 228.67L265.398 228.389C264.955 225.603 265.439 223.814 265.992 222.676C266.396 221.846 267.125 220.768 267.069 219.255C267.034 218.317 266.737 218.287 266.687 217.52C266.544 215.271 268.997 214.571 269.115 212.341C269.207 210.625 267.797 210.287 268.054 208.487C268.273 206.956 269.373 206.633 269.2 205.538C269.011 204.365 267.537 203.525 266.501 203.253C265.444 202.975 265.061 203.338 264.441 202.91C263.437 202.221 263.92 200.917 263.195 200.465C261.902 199.658 259.331 203.143 257.665 202.353C256.656 201.875 257.044 200.331 256.151 199.989C254.423 199.33 251.365 204.491 250.133 203.862C249.543 203.56 250.112 202.308 249.284 201.428C248.312 200.393 245.974 200.474 244.908 201.639C243.912 202.728 244.757 203.957 243.704 205.328C242.757 206.561 241.663 206.11 240.593 207.106C238.77 208.8 239.407 212.482 239.633 213.793C240.415 218.307 242.831 219.129 242.288 222.247C242.149 223.045 241.826 223.941 242.057 225.223C242.257 226.259 242.732 227.223 243.433 228.012Z" fill="url(#paint11_linear_0_1824)"/>
<g style="mix-blend-mode:multiply" opacity="0.3">
<path d="M265.591 217.34C265.38 215.133 267.023 214.04 266.742 212.472C266.522 211.21 265.151 210.126 263.862 209.924C261.109 209.504 259.325 213.814 256.579 213.458C254.453 213.182 254.69 210.492 252.283 209.501C248.466 207.927 244.455 213.301 241.906 211.946C241.139 211.538 240.361 210.448 240.307 207.411C238.841 209.212 239.416 212.555 239.63 213.797C240.411 218.311 242.827 219.133 242.284 222.251C242.145 223.049 241.822 223.945 242.053 225.227C242.253 226.263 242.728 227.227 243.429 228.016C243.67 228.467 243.95 228.884 244.133 228.825C244.915 228.582 241.92 220.85 244.672 217.989C246.095 216.514 247.696 217.745 253.501 217.245C259.307 216.744 260.811 215.231 262.566 216.276C264.163 217.226 265.59 220.056 264.407 228.674L265.394 228.393C264.952 225.607 265.435 223.818 265.988 222.68C266.155 222.337 266.379 221.953 266.575 221.507C266.531 220.699 266.392 219.9 266.162 219.124C265.876 218.14 265.659 218.057 265.591 217.34Z" fill="url(#paint12_linear_0_1824)"/>
</g>
</g>
<path d="M239.555 278.095C239.555 280.423 237.733 282.418 235.493 282.554C233.254 282.689 231.419 280.909 231.419 278.574C231.419 276.24 233.242 274.245 235.493 274.115C237.744 273.986 239.555 275.768 239.555 278.095Z" fill="white"/>
<path d="M258.464 276.982C258.464 279.294 256.668 281.276 254.451 281.413C252.233 281.55 250.427 279.776 250.427 277.457C250.427 275.139 252.231 273.156 254.451 273.026C256.671 272.895 258.464 274.668 258.464 276.982Z" fill="white"/>
<path d="M277.137 275.88C277.137 278.179 275.364 280.149 273.174 280.282C270.984 280.415 269.201 278.653 269.201 276.348C269.201 274.044 270.981 272.073 273.174 271.948C275.367 271.823 277.137 273.581 277.137 275.88Z" fill="white"/>
<g style="mix-blend-mode:multiply">
<path d="M236.821 187.495V230.204C236.821 236.269 232.466 241.406 227.081 241.683L194.932 243.349L188.892 243.658L186.37 243.788V196.798C186.37 196.712 186.37 196.63 186.37 196.538C186.37 196.445 186.383 196.342 186.388 196.242C186.497 194.863 187.001 193.58 187.633 192.462C187.651 192.426 187.742 192.393 187.763 192.362C189.045 190.168 191.278 188.685 193.752 188.612L207.329 188.23C207.34 188.263 207.354 188.295 207.37 188.325L236.821 187.495Z" fill="#D8DEE8"/>
</g>
<path d="M231.893 94.201C231.893 88.9002 228.539 84.4569 224.109 83.409C223.952 83.3712 223.776 83.3386 223.615 83.3099C223.123 83.2248 222.625 83.1812 222.126 83.1796L129.093 82.6348L37.2995 82.0978C37.1068 82.0978 36.9089 82.0978 36.724 82.1095C34.3358 82.2298 32.0559 83.1439 30.245 84.7072L30.1474 84.7906C29.887 85.0148 29.6435 85.2507 29.4078 85.497L29.3909 85.514C29.2503 85.6608 29.1144 85.812 28.9834 85.9675C27.1162 88.165 26.0968 90.9591 26.1098 93.8439V102.322V235.392C26.1088 236.381 26.2273 237.366 26.4626 238.327C26.5981 238.882 26.7748 239.425 26.9912 239.954C28.4039 243.408 31.3947 245.905 35.0209 246.511C35.773 246.637 36.5366 246.681 37.2982 246.641L177.772 239.359L222.147 237.06C227.518 236.781 231.889 231.645 231.889 225.59V102.071L231.893 94.201Z" fill="#D8DEE8"/>
<path d="M232.276 94.1346V225.653C232.276 231.718 227.919 236.862 222.535 237.133L177.513 239.464L37.3216 246.731C31.5744 247.028 26.5147 242.712 25.8637 236.849C25.8129 236.403 25.4731 93.7748 25.4731 93.7748C25.4731 91.3831 26.4704 89.1556 27.6318 87.2983C27.6644 87.2462 27.8545 87.1966 27.8922 87.1471C29.913 84.019 33.3973 81.9831 37.25 82.0065L58.6164 82.1369L222.518 83.0923C227.902 83.1236 232.276 88.066 232.276 94.1346Z" fill="white"/>
<path d="M37.3203 242.964C33.1225 243.177 29.6995 239.741 29.6995 235.306V93.7813C29.6995 89.3498 33.1225 85.7512 37.3203 85.7707L222.527 86.6101C226.187 86.627 229.159 89.9989 229.159 94.1241V225.791C229.159 229.919 226.187 233.426 222.527 233.611L37.3203 242.964Z" fill="url(#paint13_linear_0_1824)"/>
<path d="M222.527 83.0909L37.3203 82.0065C31.1395 81.9713 26.1098 87.2396 26.1098 93.7748V102.262L232.257 102.002V94.1293C232.257 88.0647 227.91 83.1222 222.527 83.0909Z" fill="#D8DEE8"/>
<path d="M46.0479 92.345C46.0479 94.2897 44.4203 95.8642 42.41 95.8642C40.3996 95.8642 38.7643 94.2792 38.7643 92.3307C38.7643 90.3821 40.397 88.8115 42.41 88.8115C44.4229 88.8115 46.0479 90.4004 46.0479 92.345Z" fill="white"/>
<path d="M58.7492 92.3737C58.7492 94.3092 57.136 95.8772 55.1439 95.8746C53.1518 95.872 51.5294 94.2975 51.5294 92.3554C51.5294 90.4134 53.1492 88.848 55.1439 88.8545C57.1386 88.861 58.7492 90.4381 58.7492 92.3737Z" fill="white"/>
<path d="M71.3373 92.401C71.3373 94.3287 69.7384 95.8889 67.7645 95.8876C65.7907 95.8863 64.1826 94.3235 64.1826 92.3854C64.1826 90.4472 65.7867 88.8923 67.7645 88.9001C69.7423 88.9079 71.3373 90.4746 71.3373 92.401Z" fill="white"/>
<path d="M220.901 226.238L39.1783 234.91V123.506L220.901 121.928V226.238Z" fill="#D8DEE8"/>
<g opacity="0.5">
<path d="M136.797 111.516L39.1783 111.969V117.986L136.797 117.328V111.516Z" fill="white"/>
<path d="M210.507 111.174V116.83L220.901 116.76V111.125L210.507 111.174Z" fill="white"/>
</g>
<g style="mix-blend-mode:soft-light" opacity="0.5">
<path d="M177.509 239.462L37.3203 246.731C31.5744 247.028 26.473 242.714 25.8311 236.852C25.8311 236.721 25.4691 93.7123 25.4691 93.7123C25.4691 91.3492 26.473 89.1504 27.5941 87.2996C27.6266 87.2462 27.8323 87.1979 27.8649 87.1484C29.8752 83.9382 33.4051 81.8358 37.3008 81.8606L58.5526 81.9909C58.5669 82.0404 58.6073 82.09 58.6242 82.1382C59.0214 83.3686 59.4667 84.6146 59.9445 85.8802C61.9607 91.2829 64.5685 96.4454 67.7203 101.273C67.926 101.591 68.1382 101.901 68.3505 102.212C70.6661 105.651 73.3043 108.861 76.2291 111.798C78.3529 113.927 80.6288 115.898 83.0387 117.696C85.7098 119.682 88.5194 121.474 91.446 123.058C112.043 134.304 135.119 135.31 150.394 158.366C163.466 178.094 154.105 188.848 166.742 219.176C168.114 222.472 169.584 225.619 171.152 228.617C172.481 231.179 173.87 233.641 175.318 236.001C176.035 237.176 176.769 238.334 177.509 239.462Z" fill="white"/>
</g>
<path d="M110.44 215.021C110.44 219.166 107.203 222.667 103.199 222.841C99.1957 223.016 95.9185 219.777 95.9185 215.61C95.9185 211.443 99.1827 207.94 103.199 207.79C107.216 207.64 110.44 210.876 110.44 215.021Z" fill="white"/>
<path d="M139.53 213.844C139.53 217.943 136.364 221.404 132.448 221.573C128.533 221.743 125.328 218.54 125.328 214.419C125.328 210.298 128.52 206.835 132.448 206.687C136.377 206.54 139.53 209.744 139.53 213.844Z" fill="white"/>
<path d="M167.988 212.692C167.988 216.747 164.89 220.168 161.059 220.334C157.229 220.499 154.094 217.336 154.094 213.254C154.094 209.172 157.218 205.755 161.059 205.611C164.9 205.466 167.988 208.637 167.988 212.692Z" fill="white"/>
<mask id="mask2_0_1824" style="mask-type:luminance" maskUnits="userSpaceOnUse" x="50" y="81" width="161" height="153">
<path d="M210.459 226.414L50.0139 233.085V81.751L210.459 82.6295V226.414Z" fill="white"/>
</mask>
<g mask="url(#mask2_0_1824)">
<path d="M134.459 239.629C85.2678 242.207 67.6578 249.535 59.6138 239.126C52.1765 229.499 58.3404 193.593 67.1786 183.35C81.0505 167.272 103.071 166.036 132.709 164.592C160.078 163.258 176.709 162.449 189.715 173.903C201.774 184.526 209.428 221.878 201.966 232.661C195.009 242.716 180.028 237.24 134.459 239.629Z" fill="#2F80ED"/>
<path d="M116.423 164.879L110.673 166.469C109.262 166.86 108.617 168.503 109.405 169.708C113.323 175.703 123.652 190.675 130.087 192.276C136.71 193.923 149.01 174.419 153.082 167.596C153.248 167.327 153.35 167.024 153.381 166.709C153.412 166.394 153.37 166.077 153.26 165.78C153.149 165.484 152.973 165.217 152.743 165C152.514 164.783 152.238 164.621 151.936 164.527L147.818 163.29C144.421 162.272 140.857 161.935 137.33 162.298L121.78 163.875C119.969 164.059 118.177 164.395 116.423 164.879Z" fill="url(#paint14_linear_0_1824)"/>
<path d="M120.674 142.597C120.674 142.597 123.815 165.133 119.471 167.382L131.807 180.547L144.205 164.385C144.205 164.385 139.529 160.936 140.762 142.325L120.674 142.597Z" fill="#FF8B7B"/>
<path d="M113.357 110.273C112.907 110.88 107.061 139.503 127.205 142.222C147.094 144.905 147.965 124.026 147.714 115.175C147.462 106.324 138.397 103.117 133.185 102.502C127.973 101.887 114.95 108.117 113.357 110.273Z" fill="#FF8B7B"/>
<path d="M112.185 126.95C112.185 126.95 111.173 122.29 107.706 125.229C104.239 128.169 109.754 135.856 114.294 135.485L112.185 126.95Z" fill="#FF8B7B"/>
<path d="M147.104 123.431C146.537 123.822 144.904 134.679 144.904 134.679C144.904 134.679 147.758 134.984 149.822 131.074C151.885 127.164 152.872 119.454 147.104 123.431Z" fill="#FF8B7B"/>
<path d="M154.854 102.719C152.781 99.2464 147.533 100.894 146 97.5377C144.71 94.7145 147.742 92.0635 146.116 89.6248C144.754 87.5811 141.421 87.6189 140.827 87.6254C136.309 87.6776 135.274 91.2749 132.042 91.1837C128.088 91.0729 127.933 85.6508 122.688 83.3399C117.582 81.0915 110.089 82.8628 107.05 87.0285C104.684 90.2726 106.693 92.6708 103.589 96.8417C101.451 99.7183 99.5525 99.8395 98.4939 102.663C97.494 105.311 98.171 107.832 98.6996 109.701C99.9678 114.183 102.328 116.151 105.888 120.898C108.122 123.883 110.134 127.027 111.909 130.305C113.291 133.979 114.47 137.727 115.439 141.532C116.569 145.964 116.5 146.867 117.556 148.292C121.191 153.194 129.454 152.573 132.92 152.314C136.883 152.017 141.802 151.648 144.271 148.161C145.603 146.279 145.443 144.599 145.745 140.097C146.054 135.669 146.625 131.263 147.454 126.903C147.856 125.001 148.392 123.13 149.061 121.305C150.493 117.448 151.975 116.827 153.586 112.846C154.875 109.659 156.54 105.543 154.854 102.719ZM138.481 132.878C136.036 133.567 134.383 132.99 131.059 132.833C124.39 132.519 122.276 135.675 119.113 134.334C117.791 133.773 114.734 132.195 114.086 129.114C113.594 126.507 113.524 123.838 113.877 121.209C114.398 117.336 115.012 112.867 118.114 110.884C122.608 108.017 128.328 112.903 132.422 109.711C133.985 108.493 134.612 106.641 134.896 105.234C135.808 105.546 142.992 108.156 145.632 115.852C147.255 120.588 146.324 124.828 145.534 127.136C144.051 129.406 141.781 131.947 138.481 132.878Z" fill="#26264F"/>
<path d="M124.681 137.726C128.216 138.798 132.01 138.645 135.447 137.29C135.895 137.114 136.276 137.601 135.903 137.872C134.36 138.993 132.103 140.194 129.653 140.042C127.618 139.912 125.747 139.155 124.306 138.348C123.885 138.124 124.214 137.586 124.681 137.726Z" fill="url(#paint15_linear_0_1824)"/>
</g>
<path d="M109.415 214.991C109.415 218.437 106.607 221.339 103.136 221.473C99.6644 221.607 96.8325 218.91 96.8325 215.451C96.8325 211.992 99.6579 209.088 103.136 208.968C106.613 208.848 109.415 211.54 109.415 214.991Z" fill="white"/>
<path d="M138.537 213.926C138.537 217.341 135.78 220.215 132.373 220.347C131.57 220.384 130.767 220.256 130.015 219.972C129.262 219.688 128.576 219.254 127.997 218.695C127.418 218.137 126.958 217.466 126.647 216.724C126.336 215.981 126.179 215.184 126.186 214.379C126.186 210.951 128.959 208.075 132.373 207.957C133.174 207.924 133.974 208.054 134.724 208.339C135.473 208.625 136.157 209.06 136.734 209.618C137.31 210.177 137.767 210.847 138.077 211.587C138.387 212.328 138.543 213.123 138.537 213.926Z" fill="white"/>
<path d="M167.115 212.882C167.115 216.271 164.408 219.112 161.063 219.242C157.718 219.371 154.988 216.722 154.988 213.325C154.988 209.929 157.711 207.081 161.063 206.965C164.416 206.849 167.115 209.499 167.115 212.882Z" fill="white"/>
<path d="M86.4553 98.0681C90.3744 93.1557 92.6309 87.3882 92.6309 81.2179C92.6309 63.2781 73.5482 48.7349 50.01 48.7349C26.4717 48.7349 7.39166 63.2781 7.39166 81.2179C7.39166 99.1578 26.4743 113.702 50.0139 113.702C58.8352 113.702 67.0315 111.659 73.832 108.16C78.3267 108.928 85.303 110.217 88.9851 110.897C89.2319 110.943 89.4863 110.923 89.7224 110.838C89.9586 110.753 90.1679 110.606 90.3291 110.414C90.4903 110.221 90.5975 109.99 90.6398 109.742C90.6821 109.494 90.6579 109.24 90.5697 109.005L86.4553 98.0681Z" fill="#BB6BD9"/>
<g style="mix-blend-mode:multiply" opacity="0.3">
<path d="M73.3373 88.092C63.7803 84.0711 53.2703 92.5588 46.7002 86.6388C40.0767 80.6693 47.2314 68.8684 40.8879 60.4589C37.8632 56.4484 32.7827 54.552 26.9691 53.8885C15.1922 59.6678 7.39166 69.7495 7.39166 81.218C7.39166 99.1591 26.4743 113.702 50.0139 113.702C58.8352 113.702 67.0315 111.659 73.832 108.16C77.3775 108.766 82.4684 109.697 86.2678 110.4C83.4606 95.8537 78.311 90.1853 73.3373 88.092Z" fill="url(#paint16_linear_0_1824)"/>
</g>
<path d="M78.2785 69.3467C78.2785 69.7809 78.1062 70.1973 77.7995 70.5043C77.4928 70.8113 77.0769 70.9838 76.6431 70.9838H24.8285C24.6137 70.984 24.4009 70.9417 24.2023 70.8596C24.0038 70.7774 23.8233 70.6568 23.6713 70.5048C23.5193 70.3527 23.3988 70.1722 23.3165 69.9735C23.2342 69.7748 23.1919 69.5618 23.1919 69.3467C23.1919 68.9122 23.3643 68.4955 23.6712 68.1882C23.9782 67.881 24.3945 67.7084 24.8285 67.7084H76.6496C76.8645 67.7084 77.0773 67.7508 77.2758 67.8331C77.4743 67.9155 77.6546 68.0362 77.8065 68.1883C77.9583 68.3405 78.0788 68.5211 78.1609 68.7199C78.243 68.9186 78.2852 69.1316 78.285 69.3467H78.2785Z" fill="white"/>
<path d="M78.2785 79.1743C78.2781 79.6082 78.1057 80.0243 77.799 80.331C77.4924 80.6377 77.0766 80.81 76.6431 80.81H24.8285C24.6137 80.8102 24.4009 80.768 24.2023 80.6858C24.0038 80.6036 23.8233 80.483 23.6713 80.331C23.5193 80.179 23.3988 79.9984 23.3165 79.7997C23.2342 79.601 23.1919 79.3881 23.1919 79.173C23.1919 78.9578 23.2342 78.7448 23.3165 78.546C23.3987 78.3472 23.5193 78.1666 23.6712 78.0145C23.8232 77.8623 24.0036 77.7417 24.2022 77.6593C24.4008 77.577 24.6136 77.5346 24.8285 77.5346H76.6496C76.8645 77.5346 77.0773 77.577 77.2758 77.6593C77.4743 77.7417 77.6546 77.8624 77.8065 78.0145C77.9583 78.1667 78.0788 78.3473 78.1609 78.5461C78.243 78.7449 78.2852 78.9579 78.285 79.173L78.2785 79.1743Z" fill="white"/>
<path d="M53.7351 89.0018C53.7352 89.2169 53.6931 89.4299 53.611 89.6287C53.5289 89.8275 53.4084 90.0081 53.2566 90.1602C53.1047 90.3124 52.9243 90.4331 52.7258 90.5154C52.5273 90.5978 52.3146 90.6402 52.0997 90.6402H24.8285C24.3945 90.6402 23.9782 90.4676 23.6712 90.1603C23.3643 89.8531 23.1919 89.4363 23.1919 89.0018C23.1919 88.5673 23.3643 88.1506 23.6712 87.8433C23.9782 87.5361 24.3945 87.3635 24.8285 87.3635H52.0997C52.3146 87.3635 52.5273 87.4058 52.7258 87.4882C52.9243 87.5705 53.1047 87.6913 53.2566 87.8434C53.4084 87.9956 53.5289 88.1762 53.611 88.3749C53.6931 88.5737 53.7352 88.7867 53.7351 89.0018Z" fill="white"/>
</g>
<defs>
<linearGradient id="paint0_linear_0_1824" x1="10.6389" y1="235.943" x2="248.151" y2="235.943" gradientUnits="userSpaceOnUse">
<stop stop-color="#444B8C"/>
<stop offset="1" stop-color="#26264F"/>
</linearGradient>
<linearGradient id="paint1_linear_0_1824" x1="10.6389" y1="327.361" x2="368.443" y2="327.361" gradientUnits="userSpaceOnUse">
<stop stop-color="#444B8C"/>
<stop offset="1" stop-color="#26264F"/>
</linearGradient>
<linearGradient id="paint2_linear_0_1824" x1="182.872" y1="86.7626" x2="340.804" y2="86.7626" gradientUnits="userSpaceOnUse">
<stop stop-color="white"/>
<stop offset="1" stop-color="#EBEFF2"/>
</linearGradient>
<linearGradient id="paint3_linear_0_1824" x1="301.432" y1="27.5054" x2="270.746" y2="87.5371" gradientUnits="userSpaceOnUse">
<stop stop-color="#AB316D"/>
<stop offset="1" stop-color="#792D3D"/>
</linearGradient>
<linearGradient id="paint4_linear_0_1824" x1="188.892" y1="242.151" x2="318.54" y2="242.151" gradientUnits="userSpaceOnUse">
<stop stop-color="white"/>
<stop offset="1" stop-color="#EBEFF2"/>
</linearGradient>
<linearGradient id="paint5_linear_0_1824" x1="246.816" y1="180.184" x2="258.33" y2="363.554" gradientUnits="userSpaceOnUse">
<stop stop-color="#F36F56"/>
<stop offset="1" stop-color="#FFC444"/>
</linearGradient>
<linearGradient id="paint6_linear_0_1824" x1="254.24" y1="263.751" x2="253.867" y2="241.025" gradientUnits="userSpaceOnUse">
<stop stop-color="#311944"/>
<stop offset="1" stop-color="#893976"/>
</linearGradient>
<linearGradient id="paint7_linear_0_1824" x1="254.425" y1="265.865" x2="254.305" y2="246.708" gradientUnits="userSpaceOnUse">
<stop stop-color="#AB316D"/>
<stop offset="1" stop-color="#792D3D"/>
</linearGradient>
<linearGradient id="paint8_linear_0_1824" x1="252.818" y1="238.409" x2="255.998" y2="200.18" gradientUnits="userSpaceOnUse">
<stop stop-color="#AB316D"/>
<stop offset="1" stop-color="#792D3D"/>
</linearGradient>
<linearGradient id="paint9_linear_0_1824" x1="242.103" y1="237.808" x2="245.24" y2="200.086" gradientUnits="userSpaceOnUse">
<stop stop-color="#AB316D"/>
<stop offset="1" stop-color="#792D3D"/>
</linearGradient>
<linearGradient id="paint10_linear_0_1824" x1="265.061" y1="238.885" x2="268.238" y2="200.688" gradientUnits="userSpaceOnUse">
<stop stop-color="#AB316D"/>
<stop offset="1" stop-color="#792D3D"/>
</linearGradient>
<linearGradient id="paint11_linear_0_1824" x1="252.009" y1="220.126" x2="260.488" y2="193.857" gradientUnits="userSpaceOnUse">
<stop stop-color="#311944"/>
<stop offset="1" stop-color="#6B3976"/>
</linearGradient>
<linearGradient id="paint12_linear_0_1824" x1="252.034" y1="220.052" x2="260.575" y2="193.588" gradientUnits="userSpaceOnUse">
<stop stop-color="#311944"/>
<stop offset="1" stop-color="#6B3976"/>
</linearGradient>
<linearGradient id="paint13_linear_0_1824" x1="29.6995" y1="164.373" x2="229.159" y2="164.373" gradientUnits="userSpaceOnUse">
<stop stop-color="white"/>
<stop offset="1" stop-color="#EBEFF2"/>
</linearGradient>
<linearGradient id="paint14_linear_0_1824" x1="130.24" y1="221.597" x2="131.649" y2="144.773" gradientUnits="userSpaceOnUse">
<stop stop-color="#311944"/>
<stop offset="0.56" stop-color="#6F2B60"/>
<stop offset="1" stop-color="#A03976"/>
</linearGradient>
<linearGradient id="paint15_linear_0_1824" x1="134.422" y1="100.327" x2="130.605" y2="133.256" gradientUnits="userSpaceOnUse">
<stop stop-color="#FFC444"/>
<stop offset="1" stop-color="#F36F56"/>
</linearGradient>
<linearGradient id="paint16_linear_0_1824" x1="18.6426" y1="58.771" x2="92.7125" y2="156.218" gradientUnits="userSpaceOnUse">
<stop stop-color="#AA80F9"/>
<stop offset="1" stop-color="#6165D7"/>
</linearGradient>
<clipPath id="clip0_0_1824">
<rect width="370" height="363" fill="white"/>
</clipPath>
</defs>
</svg>
